<svg width="284" height="129" viewBox="0 0 284 129" xmlns="http://www.w3.org/2000/svg"><path d="M279.395 96.145l-3.706 25.02h-13.48l3.747-25.874c.054-.325.08-.8.08-1.426 0-2.607-1.14-3.912-3.42-3.912-1.41 0-2.79.464-4.132 1.385-1.344.925-3.197 2.5-5.558 4.727l-3.666 25.1h-13.6l6.19-41.48h13.52l-.692 4.85c2.497-1.794 4.69-3.17 6.576-4.137 1.887-.963 4.228-1.447 7.024-1.447 4.235 0 7.214 1.31 8.938 3.933 1.724 2.62 2.587 5.507 2.587 8.658 0 .816-.137 2.35-.408 4.605zM233.25 58.58h-13.477l3.746-25.875c.053-.326.08-.8.08-1.426 0-2.61-1.14-3.912-3.42-3.912-1.41 0-2.79.463-4.133 1.385-1.344.923-3.197 2.5-5.558 4.726l-3.666 25.1h-13.6l6.19-41.48h13.52l-.694 4.848c2.497-1.793 4.69-3.17 6.576-4.136 1.887-.963 4.23-1.447 7.025-1.447 4.236 0 7.214 1.312 8.94 3.932 1.723 2.622 2.585 5.508 2.585 8.66 0 .814-.137 2.348-.407 4.602l-3.707 25.02zm-41.446 20.37c3.068 0 5.463.687 7.187 2.06 1.725 1.372 2.906 3 3.544 4.89.637 1.887.957 3.687.957 5.397 0 1.548-.202 3.573-.61 6.072l-3.5 23.794h-13.56l3.826-25.548c.054-.434.082-.774.082-1.02 0-1.194-.292-2.254-.876-3.176-.584-.923-1.46-1.385-2.627-1.385-1.33 0-2.715.496-4.153 1.487-1.44.992-3.258 2.534-5.456 4.624l-3.665 25.02h-13.6L173.15 33.03c.054-.434.08-.774.08-1.018 0-1.196-.29-2.255-.874-3.178-.585-.923-1.46-1.386-2.628-1.386-1.33 0-2.715.496-4.152 1.488-1.44.992-3.26 2.533-5.457 4.624l-3.665 25.02h-13.6l8.43-56.475h13.437l-2.932 19.843c2.497-1.847 4.736-3.24 6.72-4.176 1.98-.938 4.247-1.407 6.8-1.407 3.067 0 5.463.686 7.187 2.058 1.724 1.372 2.905 3.002 3.542 4.89.638 1.888.957 3.687.957 5.398 0 1.55-.204 3.573-.61 6.07l-8.097 49.752c2.495-1.848 4.735-3.24 6.717-4.177 1.982-.937 4.247-1.407 6.8-1.407zm-36.69 3.832l-1.017 9.78c-2.01-1.006-4.23-1.916-6.658-2.732-2.43-.814-4.353-1.222-5.763-1.222-1.847 0-2.77.64-2.77 1.915 0 .734.28 1.4.837 1.996.555.596 1.486 1.35 2.79 2.262 1.302.91 2.47 1.798 3.5 2.668 2.743 2.282 4.582 4.333 5.518 6.153.937 1.82 1.406 3.532 1.406 5.133 0 2.038-.597 4.082-1.792 6.132-1.195 2.052-3.006 3.736-5.436 5.053-2.43 1.318-5.396 1.978-8.897 1.978-1.385 0-3.36-.253-5.925-.755s-5.233-1.473-8.002-2.914l1.75-9.495c3.015 1.222 5.335 2.113 6.965 2.67 1.63.556 3.367.834 5.213.834 1.113 0 1.975-.258 2.585-.775.61-.514.917-1.1.917-1.75 0-.816-.427-1.612-1.282-2.385-.856-.774-2.533-2.085-5.03-3.93-2.28-1.74-4.188-3.568-5.72-5.482-1.534-1.915-2.302-4.068-2.302-6.46 0-3.285 1.337-6.192 4.012-8.72 2.674-2.524 6.562-3.788 11.667-3.788 2.714 0 5.07.334 7.064 1 1.993.665 4.117 1.608 6.37 2.832zm-24.56-29.91c-2.092 2.04-4.56 3.62-7.412 4.748-2.85 1.127-5.864 1.692-9.04 1.692-3.747 0-7.235-.822-10.466-2.465-3.23-1.644-5.796-4-7.696-7.07-1.9-3.07-2.85-6.587-2.85-10.553 0-3.015.61-5.914 1.832-8.7 1.22-2.784 2.924-5.24 5.11-7.375 2.186-2.133 4.745-3.796 7.676-4.992 2.932-1.195 6.068-1.793 9.407-1.793 3.5 0 6.786.74 9.855 2.22 3.066 1.483 5.55 3.716 7.45 6.703 1.902 2.99 2.852 6.656 2.852 11.003 0 3.288-.598 6.364-1.79 9.23-1.197 2.865-2.84 5.316-4.93 7.353zM121.41 30.14c-1.343-1.41-3.06-2.118-5.15-2.118-2.173 0-3.95.638-5.335 1.914-1.384 1.278-2.395 2.82-3.033 4.626-.64 1.806-.958 3.497-.958 5.072 0 2.256.665 4.156 1.995 5.704 1.33 1.55 3.107 2.323 5.334 2.323 1.764 0 3.352-.572 4.763-1.713 1.412-1.14 2.498-2.613 3.257-4.42.76-1.807 1.14-3.633 1.14-5.48.003-2.527-.67-4.496-2.013-5.91zM95.6 80.072c1.182.747 2.437 1.787 3.768 3.117l-6.394 13.12c-.732-1.277-1.547-2.363-2.443-3.26-.894-.896-2.035-1.344-3.42-1.344-2.66 0-5.103 1.915-7.33 5.744l-3.5 23.715H62.84l6.192-41.48H82.47l-.856 5.95c3.72-4.456 7.03-6.683 9.936-6.683 1.52 0 2.87.373 4.05 1.12zm-21.16-8.026c-2.766 2.57-3.88 6.44-32.408 4.135-5.24 0-9.603.965-13.09 2.894-3.49 1.93-6.007 4.34-7.555 7.23-1.548 2.895-2.32 5.81-2.32 8.74 0 2.474.55 4.796 1.648 6.97 1.1 2.173 2.722 3.918 4.867 5.236 2.145 1.318 4.67 1.975 7.574 1.975 1.248 0 2.47-.102 3.664-.305 1.195-.205 2.227-.43 3.096-.672.868-.246 1.628-.475 2.28-.694l1.14-7.498H33.44l1.466-10.105h22.722l-3.95 27.382c-2.01.76-4.085 1.468-6.23 2.12-2.145.652-4.555 1.22-7.227 1.71-2.675.49-5.354.735-8.042.735-3.828 0-7.418-.53-10.77-1.59-3.354-1.06-6.36-2.68-9.02-4.87-2.66-2.186-4.723-4.875-6.19-8.066C4.733 104.178 4 100.49 4 96.308c0-2.906.42-6.084 1.262-9.534.84-3.45 2.545-6.932 5.11-10.45 2.566-3.518 6.468-6.467 11.708-8.844 5.144-2.334 13.775-3.45 21.84-3.566 9.672.23 17.163 2.513 19.547-1.244.99-1.562 1.662-3.428 2.016-5.602l8.145-54.966h14.374L80.06 55.48c-.544 3.968-1.25 7.31-2.12 10.025-.868 2.717-1.888 5.04-3.5 6.54zm39.546 4.38c-1.71 0-3.182-.618-4.418-1.856-1.236-1.236-1.853-2.695-1.853-4.38 0-1.712.617-3.185 1.853-4.42 1.236-1.237 2.71-1.855 4.418-1.855 1.086 0 2.118.285 3.094.855.978.57 1.752 1.345 2.322 2.323.57.978.855 2.01.855 3.097 0 1.71-.61 3.178-1.832 4.4-1.222 1.224-2.7 1.835-4.44 1.835zm5.498 3.26l-5.905 41.478H99.815l5.904-41.48h13.764zm105.182-3.26c-1.71 0-3.183-.618-4.42-1.856-1.234-1.236-1.85-2.695-1.85-4.38 0-1.712.616-3.185 1.85-4.42 1.237-1.237 2.71-1.855 4.42-1.855 1.085 0 2.117.285 3.095.855.978.57 1.752 1.345 2.322 2.323.57.978.855 2.01.855 3.097 0 1.71-.61 3.178-1.832 4.4-1.222 1.224-2.702 1.835-4.44 1.835zm5.497 3.26l-5.905 41.478h-13.763l5.905-41.48h13.763z" fill="#FFF" fill-rule="evenodd"/></svg>