<?xml version="1.0" encoding="UTF-8" standalone="no"?>
<svg width="284px" height="129px" viewBox="0 0 284 129" version="1.1" xmlns="http://www.w3.org/2000/svg" xmlns:xlink="http://www.w3.org/1999/xlink" xmlns:sketch="http://www.bohemiancoding.com/sketch/ns">
    <!-- Generator: Sketch 3.0.1 (7597) - http://www.bohemiancoding.com/sketch -->
    <title>logo</title>
    <description>Created with Sketch.</description>
    <defs>
       <!--
 <filter x="-50%" y="-50%" width="200%" height="200%" filterUnits="objectBoundingBox" id="filter-1">
            <feOffset dx="0" dy="2" in="SourceAlpha" result="shadowOffsetOuter1"></feOffset>
            <feGaussianBlur stdDeviation="2" in="shadowOffsetOuter1" result="shadowBlurOuter1"></feGaussianBlur>
            <feColorMatrix values="0 0 0 0 0.339334562   0 0 0 0 0.784325031   0 0 0 0 0.935453869  0 0 0 0.7 0" in="shadowBlurOuter1" type="matrix" result="shadowMatrixOuter1"></feColorMatrix>
            <feMerge>
                <feMergeNode in="shadowMatrixOuter1"></feMergeNode>
                <feMergeNode in="SourceGraphic"></feMergeNode>
            </feMerge>
        </filter>
-->
    </defs>
    <g id="Page-1" stroke="none" stroke-width="1" fill="none" fill-rule="evenodd" sketch:type="MSPage">
        <g id="Desktop-HD" sketch:type="MSArtboardGroup" transform="translate(-458.000000, -197.000000)"  fill="#FFFFFF">
            <path d="M737.394501,293.144917 L733.689163,318.164286 L720.21048,318.164286 L723.957011,292.290668 C724.010953,291.965054 724.038414,291.490362 724.038414,290.863652 C724.038414,288.256773 722.897782,286.952353 720.617499,286.952353 C719.206175,286.952353 717.828197,287.416256 716.484546,288.337196 C715.140895,289.26206 713.288226,290.837172 710.926539,293.064494 L707.261412,318.164286 L693.661115,318.164286 L699.850736,276.684702 L713.36963,276.684702 L712.678189,281.532634 C715.175222,279.739792 717.367236,278.362795 719.254232,277.396739 C721.141228,276.433626 723.482319,275.950108 726.278486,275.950108 C730.513439,275.950108 733.492029,277.260412 735.216217,279.882984 C736.940406,282.503593 737.8025,285.389991 737.8025,288.541196 C737.801519,289.356213 737.666173,290.891114 737.394501,293.144917 L737.394501,293.144917 Z M691.25137,255.578594 L677.772687,255.578594 L681.519218,229.704977 C681.57316,229.379362 681.600621,228.904671 681.600621,228.278941 C681.600621,225.671082 680.459989,224.367642 678.180687,224.367642 C676.769363,224.367642 675.390404,224.830564 674.046753,225.753466 C672.703102,226.676368 670.850433,228.252461 668.488746,230.478802 L664.823619,255.578594 L651.223322,255.578594 L657.412943,214.099991 L670.932818,214.099991 L670.240396,218.947923 C672.737429,217.155081 674.929444,215.777103 676.81644,214.812028 C678.703435,213.848915 681.045507,213.365397 683.840694,213.365397 C688.075646,213.365397 691.054236,214.676682 692.779405,217.297292 C694.502613,219.918883 695.364707,222.80528 695.364707,225.955504 C695.364707,226.770522 695.22838,228.305422 694.957689,230.559225 L691.25137,255.578594 L691.25137,255.578594 Z M649.804152,275.951088 C652.871991,275.951088 655.267025,276.636645 656.991213,278.008738 C658.715402,279.381812 659.896245,281.010866 660.533744,282.898843 C661.171243,284.786819 661.490973,286.586527 661.490973,288.296985 C661.490973,289.844635 661.287954,291.869919 660.879955,294.368914 L657.378616,318.164286 L643.81853,318.164286 L647.646464,292.616283 C647.700406,292.181803 647.727868,291.842458 647.727868,291.597266 C647.727868,290.401711 647.435599,289.342482 646.852043,288.419581 C646.267506,287.496679 645.392661,287.034737 644.224568,287.034737 C642.894647,287.034737 641.509804,287.531006 640.072,288.52158 C638.632234,289.514117 636.813891,291.055883 634.615992,293.145897 L630.950866,318.165266 L617.350568,318.165266 L631.148,230.031572 C631.201942,229.598073 631.229403,229.257747 631.229403,229.013536 C631.229403,227.817981 630.937135,226.758752 630.353578,225.835851 C629.769041,224.912949 628.894197,224.450027 627.726103,224.450027 C626.396183,224.450027 625.01134,224.946295 623.573535,225.93785 C622.133769,226.930387 620.315427,228.471172 618.116547,230.562167 L614.452401,255.580555 L600.852104,255.580555 L609.281797,199.107004 L622.719287,199.107004 L619.787774,218.949885 C622.284807,217.1031 624.523899,215.710411 626.50701,214.773778 C628.488159,213.836165 630.754712,213.367358 633.307649,213.367358 C636.375488,213.367358 638.770522,214.052914 640.49471,215.425008 C642.218899,216.797101 643.399743,218.427136 644.037241,220.314132 C644.67474,222.203089 644.99447,224.001816 644.99447,225.713255 C644.99447,227.261886 644.79047,229.286189 644.383452,231.784203 L636.287219,281.534596 C638.782291,279.68683 641.022363,278.294141 643.003513,277.357508 C644.985643,276.420876 647.251215,275.951088 649.804152,275.951088 Z M613.114635,279.781965 L612.096599,289.561194 C610.087007,288.555907 607.867531,287.645755 605.439151,286.829757 C603.008811,286.01572 601.087488,285.607721 599.677145,285.607721 C597.83036,285.607721 596.908439,286.247181 596.908439,287.52316 C596.908439,288.256773 597.185996,288.923695 597.744053,289.519021 C598.299167,290.116308 599.229915,290.871498 600.533354,291.78165 C601.835813,292.691802 603.003907,293.580377 604.034693,294.450318 C606.776918,296.731582 608.615856,298.783347 609.552489,300.60267 C610.489121,302.421993 610.957928,304.135393 610.957928,305.736005 C610.957928,307.774039 610.360641,309.817957 609.166067,311.867761 C607.970511,313.919526 606.160015,315.603503 603.729674,316.920673 C601.299334,318.237843 598.334475,318.897899 594.833136,318.897899 C593.448293,318.897899 591.473028,318.644861 588.908322,318.142709 C586.342635,317.640556 583.674949,316.669596 580.906243,315.22885 L582.656912,305.735024 C585.67081,306.95706 587.991305,307.847596 589.62134,308.403691 C591.249413,308.960767 592.987332,309.239305 594.833136,309.239305 C595.946307,309.239305 596.808401,308.982344 597.418438,308.46548 C598.029456,307.950577 598.335455,307.36604 598.335455,306.71481 C598.335455,305.898812 597.907841,305.10341 597.052612,304.329585 C596.197383,303.555759 594.520271,302.245455 592.023238,300.39867 C589.742955,298.65977 587.835363,296.83162 586.302424,294.918144 C584.768504,293.002705 584.000563,290.849922 584.000563,288.458811 C584.000563,285.173242 585.337349,282.266248 588.011901,279.738811 C590.686453,277.214316 594.574213,275.950108 599.679106,275.950108 C602.39387,275.950108 604.748691,276.283568 606.743572,276.948529 C608.737471,277.61545 610.860832,278.557967 613.114635,279.781965 L613.114635,279.781965 Z M588.553284,249.873472 C586.462289,251.910525 583.992717,253.493483 581.141627,254.620384 C578.291518,255.747286 575.277621,256.312208 572.101897,256.312208 C568.355366,256.312208 564.866778,255.490325 561.636131,253.846559 C558.405484,252.202794 555.839797,249.846991 553.940051,246.77719 C552.039325,243.707389 551.088961,240.190358 551.088961,236.224136 C551.088961,233.209258 551.699979,230.31011 552.922015,227.524731 C554.14307,224.740334 555.845682,222.282531 558.031812,220.149363 C560.217942,218.017175 562.776763,216.353794 565.708276,215.158239 C568.639789,213.962684 571.776282,213.365397 575.114813,213.365397 C578.616152,213.365397 581.900741,214.105876 584.969561,215.585853 C588.03642,217.067793 590.520703,219.300999 592.42143,222.288416 C594.322156,225.277794 595.271539,228.943902 595.271539,233.290661 C595.271539,236.578193 594.674252,239.653878 593.480658,242.518699 C592.285103,245.385481 590.643299,247.836418 588.553284,249.873472 L588.553284,249.873472 Z M579.410573,227.138309 C578.066922,225.726985 576.349599,225.019852 574.259584,225.019852 C572.087185,225.019852 570.310035,225.658332 568.925192,226.93431 C567.54133,228.212249 566.530159,229.753034 565.891679,231.559607 C565.2532,233.36618 564.934451,235.057023 564.934451,236.632135 C564.934451,238.887899 565.599411,240.787645 566.929331,242.336276 C568.259251,243.884908 570.037382,244.658733 572.263723,244.658733 C574.028123,244.658733 575.615985,244.087926 577.027309,242.947294 C578.438633,241.806662 579.525323,240.33355 580.284437,238.525996 C581.044531,236.720404 581.425069,234.894216 581.425069,233.04645 C581.42703,230.519994 580.755205,228.550614 579.410573,227.138309 L579.410573,227.138309 Z M553.600706,277.072105 C554.781549,277.81945 556.036931,278.859063 557.367832,280.188983 L550.974212,293.308705 C550.241578,292.032727 549.426561,290.947017 548.531121,290.050596 C547.63568,289.154175 546.495048,288.705965 545.111186,288.705965 C542.450365,288.705965 540.007274,290.621403 537.780932,294.450318 L534.278613,318.165266 L520.841123,318.165266 L527.031725,276.685683 L540.469215,276.685683 L539.613986,282.635016 C543.333055,278.179391 546.645105,275.952069 549.550138,275.952069 C551.069346,275.951088 552.419862,276.324761 553.600706,277.072105 L553.600706,277.072105 Z M532.439675,269.045507 C529.673911,271.616098 528.560741,275.487186 500.032187,273.181402 C494.792929,273.181402 490.428515,274.144515 486.940908,276.073684 C483.451338,278.002853 480.93469,280.412598 479.387039,283.30488 C477.839389,286.199124 477.065564,289.112983 477.065564,292.045477 C477.065564,294.517991 477.615774,296.840447 478.715214,299.012846 C479.814654,301.187207 481.436843,302.931992 483.58178,304.250143 C485.726718,305.568294 488.251212,306.225408 491.156245,306.225408 C492.40378,306.225408 493.626797,306.123408 494.820391,305.920389 C496.014965,305.715409 497.046732,305.490813 497.915692,305.247583 C498.78367,305.002391 499.543765,304.772891 500.195975,304.55418 L501.335627,297.056216 L491.440667,297.056216 L492.905933,286.951372 L515.628346,286.951372 L511.678796,314.332428 C509.669205,315.092523 507.592921,315.799656 505.447983,316.450885 C503.303045,317.104076 500.893301,317.672921 498.22071,318.163305 C495.545177,318.651727 492.865722,318.896919 490.17842,318.896919 C486.350486,318.896919 482.759897,318.366324 479.407635,317.307095 C476.054393,316.247867 473.048342,314.625678 470.388501,312.437586 C467.72768,310.251457 465.665127,307.562193 464.197899,304.370777 C462.732633,301.177399 462,297.489715 462,293.306743 C462,290.40073 462.420749,287.223045 463.262247,283.772706 C464.102765,280.322367 465.807338,276.840644 468.372044,273.321652 C470.937731,269.804621 474.840203,266.856435 480.080442,264.479055 C485.223584,262.145811 493.855316,261.029698 501.920164,260.913967 C511.592489,261.143467 519.082607,263.426692 521.466852,259.670354 C522.457427,258.107992 523.129252,256.241593 523.483309,254.068213 L531.627599,199.102101 L546.001722,199.102101 L538.060451,252.47937 C537.516125,256.447554 536.809973,259.789027 535.941013,262.504771 C535.072054,265.222477 534.052056,267.545914 532.439675,269.045507 Z M571.986166,273.424632 C570.276689,273.424632 568.803577,272.80773 567.56781,271.570002 C566.332044,270.334235 565.715141,268.874854 565.715141,267.190877 C565.715141,265.478457 566.332044,264.005345 567.56781,262.768598 C568.803577,261.532831 570.276689,260.914948 571.986166,260.914948 C573.071875,260.914948 574.103642,261.200351 575.080486,261.770177 C576.058311,262.340983 576.832136,263.114808 577.401962,264.092633 C577.971788,265.071439 578.257191,266.104187 578.257191,267.189896 C578.257191,268.900354 577.646173,270.367581 576.425118,271.589617 C575.203082,272.813614 573.724085,273.424632 571.986166,273.424632 L571.986166,273.424632 Z M577.484347,276.684702 L571.579148,318.164286 L557.816043,318.164286 L563.720261,276.684702 L577.484347,276.684702 L577.484347,276.684702 Z M682.665735,273.424632 C680.956257,273.424632 679.483145,272.80773 678.247379,271.570002 C677.011612,270.334235 676.39471,268.874854 676.39471,267.190877 C676.39471,265.478457 677.011612,264.005345 678.247379,262.768598 C679.483145,261.532831 680.956257,260.914948 682.665735,260.914948 C683.751444,260.914948 684.783211,261.200351 685.761036,261.770177 C686.73788,262.340983 687.511705,263.114808 688.081531,264.092633 C688.651356,265.071439 688.936759,266.104187 688.936759,267.189896 C688.936759,268.900354 688.325742,270.367581 687.104687,271.589617 C685.882651,272.813614 684.402673,273.424632 682.665735,273.424632 L682.665735,273.424632 Z M688.162934,276.684702 L682.257735,318.164286 L668.494631,318.164286 L674.399829,276.684702 L688.162934,276.684702 L688.162934,276.684702 Z" id="logo" sketch:type="MSShapeGroup"></path>
        </g>
    </g>
</svg>